<svg width="128" height="128" viewBox="0 0 128 128" xmlns="http://www.w3.org/2000/svg">
  <defs>
    <linearGradient id="grad1" x1="0%" y1="0%" x2="100%" y2="100%">
      <stop offset="0%" style="stop-color:#667eea;stop-opacity:1" />
      <stop offset="100%" style="stop-color:#764ba2;stop-opacity:1" />
    </linearGradient>
  </defs>
  
  <!-- Background circle -->
  <circle cx="64" cy="64" r="60" fill="url(#grad1)" stroke="#fff" stroke-width="4"/>
  
  <!-- QR Code pattern -->
  <g fill="#fff">
    <!-- Top-left corner -->
    <rect x="20" y="20" width="24" height="24" fill="#fff"/>
    <rect x="24" y="24" width="16" height="16" fill="#667eea"/>
    <rect x="28" y="28" width="8" height="8" fill="#fff"/>
    
    <!-- Top-right corner -->
    <rect x="84" y="20" width="24" height="24" fill="#fff"/>
    <rect x="88" y="24" width="16" height="16" fill="#667eea"/>
    <rect x="92" y="28" width="8" height="8" fill="#fff"/>
    
    <!-- Bottom-left corner -->
    <rect x="20" y="84" width="24" height="24" fill="#fff"/>
    <rect x="24" y="88" width="16" height="16" fill="#667eea"/>
    <rect x="28" y="92" width="8" height="8" fill="#fff"/>
    
    <!-- Data pattern -->
    <rect x="48" y="20" width="4" height="4" fill="#fff"/>
    <rect x="56" y="20" width="4" height="4" fill="#fff"/>
    <rect x="64" y="20" width="4" height="4" fill="#fff"/>
    <rect x="72" y="20" width="4" height="4" fill="#fff"/>
    
    <rect x="48" y="28" width="4" height="4" fill="#fff"/>
    <rect x="64" y="28" width="4" height="4" fill="#fff"/>
    
    <rect x="48" y="36" width="4" height="4" fill="#fff"/>
    <rect x="56" y="36" width="4" height="4" fill="#fff"/>
    <rect x="72" y="36" width="4" height="4" fill="#fff"/>
    
    <rect x="48" y="44" width="4" height="4" fill="#fff"/>
    <rect x="64" y="44" width="4" height="4" fill="#fff"/>
    
    <rect x="48" y="52" width="4" height="4" fill="#fff"/>
    <rect x="56" y="52" width="4" height="4" fill="#fff"/>
    <rect x="64" y="52" width="4" height="4" fill="#fff"/>
    <rect x="72" y="52" width="4" height="4" fill="#fff"/>
    
    <rect x="48" y="60" width="4" height="4" fill="#fff"/>
    <rect x="72" y="60" width="4" height="4" fill="#fff"/>
    
    <rect x="48" y="68" width="4" height="4" fill="#fff"/>
    <rect x="56" y="68" width="4" height="4" fill="#fff"/>
    <rect x="64" y="68" width="4" height="4" fill="#fff"/>
    <rect x="72" y="68" width="4" height="4" fill="#fff"/>
    
    <rect x="48" y="76" width="4" height="4" fill="#fff"/>
    <rect x="64" y="76" width="4" height="4" fill="#fff"/>
    
    <rect x="48" y="84" width="4" height="4" fill="#fff"/>
    <rect x="56" y="84" width="4" height="4" fill="#fff"/>
    <rect x="72" y="84" width="4" height="4" fill="#fff"/>
    
    <rect x="48" y="92" width="4" height="4" fill="#fff"/>
    <rect x="64" y="92" width="4" height="4" fill="#fff"/>
    
    <rect x="48" y="100" width="4" height="4" fill="#fff"/>
    <rect x="56" y="100" width="4" height="4" fill="#fff"/>
    <rect x="64" y="100" width="4" height="4" fill="#fff"/>
    <rect x="72" y="100" width="4" height="4" fill="#fff"/>
    
    <!-- Right side pattern -->
    <rect x="84" y="48" width="4" height="4" fill="#fff"/>
    <rect x="92" y="48" width="4" height="4" fill="#fff"/>
    <rect x="100" y="48" width="4" height="4" fill="#fff"/>
    
    <rect x="84" y="56" width="4" height="4" fill="#fff"/>
    <rect x="100" y="56" width="4" height="4" fill="#fff"/>
    
    <rect x="84" y="64" width="4" height="4" fill="#fff"/>
    <rect x="92" y="64" width="4" height="4" fill="#fff"/>
    <rect x="100" y="64" width="4" height="4" fill="#fff"/>
    
    <rect x="84" y="72" width="4" height="4" fill="#fff"/>
    <rect x="100" y="72" width="4" height="4" fill="#fff"/>
    
    <rect x="84" y="80" width="4" height="4" fill="#fff"/>
    <rect x="92" y="80" width="4" height="4" fill="#fff"/>
    <rect x="100" y="80" width="4" height="4" fill="#fff"/>
    
    <rect x="84" y="88" width="4" height="4" fill="#fff"/>
    <rect x="100" y="88" width="4" height="4" fill="#fff"/>
    
    <rect x="84" y="96" width="4" height="4" fill="#fff"/>
    <rect x="92" y="96" width="4" height="4" fill="#fff"/>
    <rect x="100" y="96" width="4" height="4" fill="#fff"/>
    
    <rect x="84" y="104" width="4" height="4" fill="#fff"/>
    <rect x="100" y="104" width="4" height="4" fill="#fff"/>
  </g>
</svg>
